# xmcd CD database file
#
# Track frame offsets:
#	150
#	21487
#	47655
#	67267
#	83601
#	108441
#	128850
#	149736
#	177174
#	202325
#
# Disc length: 2941 seconds
#
# Revision: 1
# Processed by: cddbd v1.5.2PL0 Copyright (c) Steve Scherf et al.
# Submitted via: CDex 1.51
#
DISCID=9b0b7b0a
DTITLE=VARIOS - ESTO ES CUBA 09 - SON O SALSA (DISCO 2)
DYEAR=1900
DGENRE=Salsa
TTITLE0=ARRÍMATE PA'CA - HAVANA CASINO
TTITLE1=FUEGO EN EL 23 - HAVANA CASINO
TTITLE2=TOMAREMOS LA INICIATIVA SON DAMAS
TTITLE3=LA COSQUILLITA - SON DAMAS
TTITLE4=LA CUENTA - YUMURI Y SUS HERMANOS
TTITLE5=OLVÍDAME SI PUEDES - YUMURI Y SUS HERMANOS
TTITLE6=EN ESE LUGAR - D' JALLE
TTITLE7=POPURRI DE SONES - D' JALLE
TTITLE8=APROVECHA POLLO - MAYITO RIVERA
TTITLE9=LA GUARAPACHANGA - MAYITO RIVERA
EXTD=
EXTT0=
EXTT1=
EXTT2=
EXTT3=
EXTT4=
EXTT5=
EXTT6=
EXTT7=
EXTT8=
EXTT9=
PLAYORDER=
